<mxfile host="app.diagrams.net" modified="2023-06-29T08:22:07.456Z" agent="Mozilla/5.0 (Macintosh; Intel Mac OS X 10_15_7) AppleWebKit/537.36 (KHTML, like Gecko) Chrome/114.0.0.0 Safari/537.36" etag="F95U85svb_XBAa6irG0R" version="21.5.1" type="device">
  <diagram id="R2lEEEUBdFMjLlhIrx00" name="Page-1">
    <mxGraphModel dx="2440" dy="2008" grid="0" gridSize="10" guides="1" tooltips="1" connect="1" arrows="1" fold="1" page="1" pageScale="1" pageWidth="850" pageHeight="1100" math="0" shadow="0" extFonts="Permanent Marker^https://fonts.googleapis.com/css?family=Permanent+Marker">
      <root>
        <mxCell id="0" />
        <mxCell id="1" parent="0" />
        <mxCell id="0q62kOGyJzSYfxdms7gV-1" value="&lt;font style=&quot;font-size: 19px;&quot;&gt;countrycode&lt;/font&gt;" style="swimlane;childLayout=stackLayout;horizontal=1;startSize=50;horizontalStack=0;rounded=1;fontSize=14;fontStyle=0;strokeWidth=2;resizeParent=0;resizeLast=1;shadow=0;dashed=0;align=center;arcSize=4;whiteSpace=wrap;html=1;" vertex="1" parent="1">
          <mxGeometry x="-80" y="270" width="220" height="200" as="geometry" />
        </mxCell>
        <mxCell id="0q62kOGyJzSYfxdms7gV-2" value="&lt;ul style=&quot;font-size: 15px;&quot;&gt;&lt;li&gt;&lt;span style=&quot;background-color: initial;&quot;&gt;`country` string,&amp;nbsp;&lt;/span&gt;&lt;/li&gt;&lt;li&gt;&lt;span style=&quot;background-color: initial;&quot;&gt;`alpha-2 code` string,&amp;nbsp;&lt;/span&gt;&lt;/li&gt;&lt;li&gt;&lt;span style=&quot;background-color: initial;&quot;&gt;`alpha-3 code` string,&amp;nbsp;&lt;/span&gt;&lt;/li&gt;&lt;li&gt;&lt;span style=&quot;background-color: initial;&quot;&gt;`numeric code` bigint,&amp;nbsp;&lt;/span&gt;&lt;/li&gt;&lt;li&gt;`latitude` double,&amp;nbsp;&lt;/li&gt;&lt;li&gt;&lt;span style=&quot;background-color: initial;&quot;&gt;`longitude` double&lt;/span&gt;&lt;/li&gt;&lt;/ul&gt;" style="align=left;strokeColor=none;fillColor=none;spacingLeft=4;fontSize=12;verticalAlign=top;resizable=0;rotatable=0;part=1;html=1;" vertex="1" parent="0q62kOGyJzSYfxdms7gV-1">
          <mxGeometry y="50" width="220" height="150" as="geometry" />
        </mxCell>
        <mxCell id="0q62kOGyJzSYfxdms7gV-12" value="&lt;font style=&quot;font-size: 19px;&quot;&gt;countrypopulation&lt;/font&gt;" style="swimlane;childLayout=stackLayout;horizontal=1;startSize=50;horizontalStack=0;rounded=1;fontSize=14;fontStyle=0;strokeWidth=2;resizeParent=0;resizeLast=1;shadow=0;dashed=0;align=center;arcSize=4;whiteSpace=wrap;html=1;" vertex="1" parent="1">
          <mxGeometry x="-680" y="-810" width="300" height="190" as="geometry" />
        </mxCell>
        <mxCell id="0q62kOGyJzSYfxdms7gV-13" value="&lt;div style=&quot;font-size: 15px;&quot;&gt;&lt;ul&gt;&lt;li&gt;`id` string,&amp;nbsp;&lt;/li&gt;&lt;li&gt;`id2` bigint,&amp;nbsp;&lt;/li&gt;&lt;li&gt;`county` string,&amp;nbsp;&lt;/li&gt;&lt;li&gt;`state` string,&amp;nbsp;&lt;/li&gt;&lt;li&gt;`population estimate 2018` bigint&lt;/li&gt;&lt;/ul&gt;&lt;/div&gt;" style="align=left;strokeColor=none;fillColor=none;spacingLeft=4;fontSize=12;verticalAlign=top;resizable=0;rotatable=0;part=1;html=1;" vertex="1" parent="0q62kOGyJzSYfxdms7gV-12">
          <mxGeometry y="50" width="300" height="140" as="geometry" />
        </mxCell>
        <mxCell id="0q62kOGyJzSYfxdms7gV-14" value="&lt;font style=&quot;font-size: 19px;&quot;&gt;enigma_jhub&lt;/font&gt;" style="swimlane;childLayout=stackLayout;horizontal=1;startSize=50;horizontalStack=0;rounded=1;fontSize=14;fontStyle=0;strokeWidth=2;resizeParent=0;resizeLast=1;shadow=0;dashed=0;align=center;arcSize=4;whiteSpace=wrap;html=1;" vertex="1" parent="1">
          <mxGeometry x="-110" y="-150" width="280" height="330" as="geometry" />
        </mxCell>
        <mxCell id="0q62kOGyJzSYfxdms7gV-15" value="&lt;div style=&quot;font-size: 15px;&quot;&gt;&lt;ul&gt;&lt;li&gt;&lt;font style=&quot;font-size: 15px;&quot;&gt;`fips` bigint,&amp;nbsp;&lt;/font&gt;&lt;/li&gt;&lt;li&gt;&lt;font style=&quot;font-size: 15px;&quot;&gt;`admin2` string,&amp;nbsp;&lt;/font&gt;&lt;/li&gt;&lt;li&gt;&lt;font style=&quot;font-size: 15px;&quot;&gt;`province_state` string,&amp;nbsp;&lt;/font&gt;&lt;/li&gt;&lt;li&gt;&lt;font style=&quot;font-size: 15px;&quot;&gt;`country_region` string,&amp;nbsp;&lt;/font&gt;&lt;/li&gt;&lt;li&gt;&lt;font style=&quot;font-size: 15px;&quot;&gt;`last_update` string,&amp;nbsp;&lt;/font&gt;&lt;/li&gt;&lt;li&gt;&lt;font style=&quot;font-size: 15px;&quot;&gt;`latitude` double,&amp;nbsp;&lt;/font&gt;&lt;/li&gt;&lt;li&gt;&lt;font style=&quot;font-size: 15px;&quot;&gt;`longitude` double,&amp;nbsp;&lt;/font&gt;&lt;/li&gt;&lt;li&gt;`confirmed` bigint,&amp;nbsp;&lt;/li&gt;&lt;li&gt;&lt;font style=&quot;font-size: 15px;&quot;&gt;`deaths` bigint,&amp;nbsp;&lt;/font&gt;&lt;/li&gt;&lt;li&gt;&lt;font style=&quot;font-size: 15px;&quot;&gt;`recovered` bigint,&amp;nbsp;&lt;/font&gt;&lt;/li&gt;&lt;li&gt;&lt;font style=&quot;font-size: 15px;&quot;&gt;`active` string,&amp;nbsp;&lt;/font&gt;&lt;/li&gt;&lt;li&gt;&lt;font style=&quot;font-size: 15px;&quot;&gt;`combined_key` string&lt;/font&gt;&lt;/li&gt;&lt;/ul&gt;&lt;/div&gt;" style="align=left;strokeColor=none;fillColor=none;spacingLeft=4;fontSize=12;verticalAlign=top;resizable=0;rotatable=0;part=1;html=1;" vertex="1" parent="0q62kOGyJzSYfxdms7gV-14">
          <mxGeometry y="50" width="280" height="280" as="geometry" />
        </mxCell>
        <mxCell id="0q62kOGyJzSYfxdms7gV-16" value="&lt;font style=&quot;font-size: 19px;&quot;&gt;reatc_usa_hospital_beds&lt;/font&gt;" style="swimlane;childLayout=stackLayout;horizontal=1;startSize=50;horizontalStack=0;rounded=1;fontSize=14;fontStyle=0;strokeWidth=2;resizeParent=0;resizeLast=1;shadow=0;dashed=0;align=center;arcSize=4;whiteSpace=wrap;html=1;" vertex="1" parent="1">
          <mxGeometry x="-635" y="295" width="525" height="510" as="geometry" />
        </mxCell>
        <mxCell id="0q62kOGyJzSYfxdms7gV-17" value="&lt;div style=&quot;font-size: 15px;&quot;&gt;&lt;ul&gt;&lt;li&gt;`objectid` int COMMENT &#39;from deserializer&#39;,&amp;nbsp;&lt;/li&gt;&lt;li&gt;&amp;nbsp; `hospital_name` string COMMENT &#39;from deserializer&#39;,&amp;nbsp;&lt;/li&gt;&lt;li&gt;&amp;nbsp; `hospital_type` string COMMENT &#39;from deserializer&#39;,&amp;nbsp;&lt;/li&gt;&lt;li&gt;&amp;nbsp; `hq_address` string COMMENT &#39;from deserializer&#39;,&amp;nbsp;&lt;/li&gt;&lt;li&gt;&amp;nbsp; `hq_address1` string COMMENT &#39;from deserializer&#39;,&amp;nbsp;&lt;/li&gt;&lt;li&gt;&amp;nbsp; `hq_city` string COMMENT &#39;from deserializer&#39;,&amp;nbsp;&lt;/li&gt;&lt;li&gt;&amp;nbsp; `hq_state` string COMMENT &#39;from deserializer&#39;,&amp;nbsp;&lt;/li&gt;&lt;li&gt;&amp;nbsp; `hq_zip_code` string COMMENT &#39;from deserializer&#39;,&amp;nbsp;&lt;/li&gt;&lt;li&gt;&amp;nbsp; `county_name` string COMMENT &#39;from deserializer&#39;,&amp;nbsp;&lt;/li&gt;&lt;li&gt;&amp;nbsp; `state_name` string COMMENT &#39;from deserializer&#39;,&amp;nbsp;&lt;/li&gt;&lt;li&gt;&amp;nbsp; `state_fips` string COMMENT &#39;from deserializer&#39;,&amp;nbsp;&lt;/li&gt;&lt;li&gt;&amp;nbsp; `cnty_fips` string COMMENT &#39;from deserializer&#39;,&amp;nbsp;&lt;/li&gt;&lt;li&gt;&amp;nbsp; `fips` string COMMENT &#39;from deserializer&#39;,&amp;nbsp;&lt;/li&gt;&lt;li&gt;&amp;nbsp; `num_licensed_beds` int COMMENT &#39;from deserializer&#39;,&amp;nbsp;&lt;/li&gt;&lt;li&gt;&amp;nbsp; `num_staffed_beds` int COMMENT &#39;from deserializer&#39;,&amp;nbsp;&lt;/li&gt;&lt;li&gt;&amp;nbsp; `num_icu_beds` int COMMENT &#39;from deserializer&#39;,&amp;nbsp;&lt;/li&gt;&lt;li&gt;&amp;nbsp; `adult_icu_beds` int COMMENT &#39;from deserializer&#39;,&amp;nbsp;&lt;/li&gt;&lt;li&gt;&amp;nbsp; `pedi_icu_beds` double COMMENT &#39;from deserializer&#39;,&amp;nbsp;&lt;/li&gt;&lt;li&gt;&amp;nbsp; `bed_utilization` double COMMENT &#39;from deserializer&#39;,&amp;nbsp;&lt;/li&gt;&lt;li&gt;&amp;nbsp; `avg_ventilator_usage` double COMMENT &#39;from deserializer&#39;,&amp;nbsp;&lt;/li&gt;&lt;li&gt;&amp;nbsp; `potential_increase_in_bed_capac` int COMMENT &#39;from deserializer&#39;,&amp;nbsp;&lt;/li&gt;&lt;li&gt;&amp;nbsp; `latitude` double COMMENT &#39;from deserializer&#39;,&amp;nbsp;&lt;/li&gt;&lt;li&gt;&amp;nbsp; `longtitude` double COMMENT &#39;from deserializer&#39;&lt;/li&gt;&lt;/ul&gt;&lt;/div&gt;" style="align=left;strokeColor=none;fillColor=none;spacingLeft=4;fontSize=12;verticalAlign=top;resizable=0;rotatable=0;part=1;html=1;" vertex="1" parent="0q62kOGyJzSYfxdms7gV-16">
          <mxGeometry y="50" width="525" height="460" as="geometry" />
        </mxCell>
        <mxCell id="0q62kOGyJzSYfxdms7gV-18" value="&lt;font style=&quot;font-size: 19px;&quot;&gt;state_abv&lt;/font&gt;" style="swimlane;childLayout=stackLayout;horizontal=1;startSize=50;horizontalStack=0;rounded=1;fontSize=14;fontStyle=0;strokeWidth=2;resizeParent=0;resizeLast=1;shadow=0;dashed=0;align=center;arcSize=4;whiteSpace=wrap;html=1;" vertex="1" parent="1">
          <mxGeometry x="-710" y="-430" width="160" height="120" as="geometry" />
        </mxCell>
        <mxCell id="0q62kOGyJzSYfxdms7gV-19" value="&lt;div style=&quot;font-size: 15px;&quot;&gt;&lt;ul&gt;&lt;li&gt;`col0` string,&amp;nbsp;&lt;/li&gt;&lt;li&gt;&amp;nbsp;`col1` string&lt;/li&gt;&lt;/ul&gt;&lt;/div&gt;" style="align=left;strokeColor=none;fillColor=none;spacingLeft=4;fontSize=12;verticalAlign=top;resizable=0;rotatable=0;part=1;html=1;" vertex="1" parent="0q62kOGyJzSYfxdms7gV-18">
          <mxGeometry y="50" width="160" height="70" as="geometry" />
        </mxCell>
        <mxCell id="0q62kOGyJzSYfxdms7gV-20" value="&lt;font style=&quot;font-size: 19px;&quot;&gt;states_daily&lt;/font&gt;" style="swimlane;childLayout=stackLayout;horizontal=1;startSize=50;horizontalStack=0;rounded=1;fontSize=14;fontStyle=0;strokeWidth=2;resizeParent=0;resizeLast=1;shadow=0;dashed=0;align=center;arcSize=4;whiteSpace=wrap;html=1;" vertex="1" parent="1">
          <mxGeometry x="280" y="-570" width="310" height="1130" as="geometry" />
        </mxCell>
        <mxCell id="0q62kOGyJzSYfxdms7gV-21" value="&lt;div style=&quot;font-size: 15px;&quot;&gt;&lt;ul&gt;&lt;li&gt;&lt;font style=&quot;font-size: 15px;&quot;&gt;`date` bigint,&amp;nbsp;&lt;/font&gt;&lt;/li&gt;&lt;li&gt;&lt;font style=&quot;font-size: 15px;&quot;&gt;&amp;nbsp; `state` string,&amp;nbsp;&lt;/font&gt;&lt;/li&gt;&lt;li&gt;&lt;font style=&quot;font-size: 15px;&quot;&gt;&amp;nbsp; `positive` bigint,&amp;nbsp;&lt;/font&gt;&lt;/li&gt;&lt;li&gt;&lt;font style=&quot;font-size: 15px;&quot;&gt;&amp;nbsp; `probablecases` bigint,&amp;nbsp;&lt;/font&gt;&lt;/li&gt;&lt;li&gt;&lt;font style=&quot;font-size: 15px;&quot;&gt;&amp;nbsp; `negative` bigint,&amp;nbsp;&lt;/font&gt;&lt;/li&gt;&lt;li&gt;&lt;font style=&quot;font-size: 15px;&quot;&gt;&amp;nbsp; `pending` bigint,&amp;nbsp;&lt;/font&gt;&lt;/li&gt;&lt;li&gt;&lt;font style=&quot;font-size: 15px;&quot;&gt;&amp;nbsp; `totaltestresultssource` string,&amp;nbsp;&lt;/font&gt;&lt;/li&gt;&lt;li&gt;&lt;font style=&quot;font-size: 15px;&quot;&gt;&amp;nbsp; `totaltestresults` bigint,&amp;nbsp;&lt;/font&gt;&lt;/li&gt;&lt;li&gt;&lt;font style=&quot;font-size: 15px;&quot;&gt;&amp;nbsp; `hospitalizedcurrently` bigint,&amp;nbsp;&lt;/font&gt;&lt;/li&gt;&lt;li&gt;&lt;font style=&quot;font-size: 15px;&quot;&gt;&amp;nbsp; `hospitalizedcumulative` bigint,&amp;nbsp;&lt;/font&gt;&lt;/li&gt;&lt;li&gt;&lt;font style=&quot;font-size: 15px;&quot;&gt;&amp;nbsp; `inicucurrently` bigint,&amp;nbsp;&lt;/font&gt;&lt;/li&gt;&lt;li&gt;&lt;font style=&quot;font-size: 15px;&quot;&gt;&amp;nbsp; `inicucumulative` bigint,&amp;nbsp;&lt;/font&gt;&lt;/li&gt;&lt;li&gt;&lt;font style=&quot;font-size: 15px;&quot;&gt;&amp;nbsp; `onventilatorcurrently` bigint,&amp;nbsp;&lt;/font&gt;&lt;/li&gt;&lt;li&gt;&lt;font style=&quot;font-size: 15px;&quot;&gt;&amp;nbsp; `onventilatorcumulative` bigint,&amp;nbsp;&lt;/font&gt;&lt;/li&gt;&lt;li&gt;&lt;font style=&quot;font-size: 15px;&quot;&gt;&amp;nbsp; `recovered` bigint,&amp;nbsp;&lt;/font&gt;&lt;/li&gt;&lt;li&gt;&lt;font style=&quot;font-size: 15px;&quot;&gt;&amp;nbsp; `lastupdateet` string,&amp;nbsp;&lt;/font&gt;&lt;/li&gt;&lt;li&gt;&lt;font style=&quot;font-size: 15px;&quot;&gt;&amp;nbsp; `datemodified` string,&amp;nbsp;&lt;/font&gt;&lt;/li&gt;&lt;li&gt;&lt;font style=&quot;font-size: 15px;&quot;&gt;&amp;nbsp; `checktimeet` string,&amp;nbsp;&lt;/font&gt;&lt;/li&gt;&lt;li&gt;&lt;font style=&quot;font-size: 15px;&quot;&gt;&amp;nbsp; `death` bigint,&amp;nbsp;&lt;/font&gt;&lt;/li&gt;&lt;li&gt;&lt;font style=&quot;font-size: 15px;&quot;&gt;&amp;nbsp; `hospitalized` bigint,&amp;nbsp;&lt;/font&gt;&lt;/li&gt;&lt;li&gt;&lt;font style=&quot;font-size: 15px;&quot;&gt;&amp;nbsp; `hospitalizeddischarged` bigint,&amp;nbsp;&lt;/font&gt;&lt;/li&gt;&lt;li&gt;&lt;font style=&quot;font-size: 15px;&quot;&gt;&amp;nbsp; `datechecked` string,&amp;nbsp;&lt;/font&gt;&lt;/li&gt;&lt;li&gt;&lt;font style=&quot;font-size: 15px;&quot;&gt;&amp;nbsp; `totaltestsviral` bigint,&amp;nbsp;&lt;/font&gt;&lt;/li&gt;&lt;li&gt;&lt;font style=&quot;font-size: 15px;&quot;&gt;&amp;nbsp; `positivetestsviral` bigint,&amp;nbsp;&lt;/font&gt;&lt;/li&gt;&lt;li&gt;&lt;font style=&quot;font-size: 15px;&quot;&gt;&amp;nbsp; `negativetestsviral` bigint,&amp;nbsp;&lt;/font&gt;&lt;/li&gt;&lt;li&gt;&lt;font style=&quot;font-size: 15px;&quot;&gt;&amp;nbsp; `positivecasesviral` bigint,&amp;nbsp;&lt;/font&gt;&lt;/li&gt;&lt;li&gt;&lt;font style=&quot;font-size: 15px;&quot;&gt;&amp;nbsp; `deathconfirmed` bigint,&amp;nbsp;&lt;/font&gt;&lt;/li&gt;&lt;li&gt;&lt;font style=&quot;font-size: 15px;&quot;&gt;&amp;nbsp; `deathprobable` bigint,&amp;nbsp;&lt;/font&gt;&lt;/li&gt;&lt;li&gt;&lt;font style=&quot;font-size: 15px;&quot;&gt;&amp;nbsp; `totaltestencountersviral` bigint,&amp;nbsp;&lt;/font&gt;&lt;/li&gt;&lt;li&gt;&lt;font style=&quot;font-size: 15px;&quot;&gt;&amp;nbsp; `totaltestspeopleviral` bigint,&amp;nbsp;&lt;/font&gt;&lt;/li&gt;&lt;li&gt;&lt;font style=&quot;font-size: 15px;&quot;&gt;&amp;nbsp; `totaltestsantibody` bigint,&amp;nbsp;&lt;/font&gt;&lt;/li&gt;&lt;li&gt;&lt;font style=&quot;font-size: 15px;&quot;&gt;&amp;nbsp; `positivetestsantibody` bigint,&amp;nbsp;&lt;/font&gt;&lt;/li&gt;&lt;li&gt;&lt;font style=&quot;font-size: 15px;&quot;&gt;&amp;nbsp; `negativetestsantibody` bigint,&amp;nbsp;&lt;/font&gt;&lt;/li&gt;&lt;li&gt;&lt;font style=&quot;font-size: 15px;&quot;&gt;&amp;nbsp; `totaltestspeopleantibody` bigint,&amp;nbsp;&lt;/font&gt;&lt;/li&gt;&lt;li&gt;&lt;font style=&quot;font-size: 15px;&quot;&gt;&amp;nbsp; `positivetestspeopleantibody` bigint,&amp;nbsp;&lt;/font&gt;&lt;/li&gt;&lt;li&gt;&lt;font style=&quot;font-size: 15px;&quot;&gt;&amp;nbsp; `negativetestspeopleantibody` bigint,&amp;nbsp;&lt;/font&gt;&lt;/li&gt;&lt;li&gt;&lt;font style=&quot;font-size: 15px;&quot;&gt;&amp;nbsp; `totaltestspeopleantigen` bigint,&amp;nbsp;&lt;/font&gt;&lt;/li&gt;&lt;li&gt;&lt;font style=&quot;font-size: 15px;&quot;&gt;&amp;nbsp; `positivetestspeopleantigen` bigint,&amp;nbsp;&lt;/font&gt;&lt;/li&gt;&lt;li&gt;&lt;font style=&quot;font-size: 15px;&quot;&gt;&amp;nbsp; `totaltestsantigen` bigint,&amp;nbsp;&lt;/font&gt;&lt;/li&gt;&lt;li&gt;&lt;font style=&quot;font-size: 15px;&quot;&gt;&amp;nbsp; `positivetestsantigen` bigint,&amp;nbsp;&lt;/font&gt;&lt;/li&gt;&lt;li&gt;&lt;font style=&quot;font-size: 15px;&quot;&gt;&amp;nbsp; `fips` bigint,&amp;nbsp;&lt;/font&gt;&lt;/li&gt;&lt;li&gt;&lt;font style=&quot;font-size: 15px;&quot;&gt;&amp;nbsp; `positiveincrease` bigint,&amp;nbsp;&lt;/font&gt;&lt;/li&gt;&lt;li&gt;&lt;font style=&quot;font-size: 15px;&quot;&gt;&amp;nbsp; `negativeincrease` bigint,&amp;nbsp;&lt;/font&gt;&lt;/li&gt;&lt;li&gt;&lt;font style=&quot;font-size: 15px;&quot;&gt;&amp;nbsp; `total` bigint,&amp;nbsp;&lt;/font&gt;&lt;/li&gt;&lt;li&gt;&lt;font style=&quot;font-size: 15px;&quot;&gt;&amp;nbsp; `totaltestresultsincrease` bigint,&amp;nbsp;&lt;/font&gt;&lt;/li&gt;&lt;li&gt;&lt;font style=&quot;font-size: 15px;&quot;&gt;&amp;nbsp; `posneg` bigint,&amp;nbsp;&lt;/font&gt;&lt;/li&gt;&lt;li&gt;&lt;font style=&quot;font-size: 15px;&quot;&gt;&amp;nbsp; `dataqualitygrade` string,&amp;nbsp;&lt;/font&gt;&lt;/li&gt;&lt;li&gt;&lt;font style=&quot;font-size: 15px;&quot;&gt;&amp;nbsp; `deathincrease` bigint,&amp;nbsp;&lt;/font&gt;&lt;/li&gt;&lt;li&gt;&lt;font style=&quot;font-size: 15px;&quot;&gt;&amp;nbsp; `hospitalizedincrease` bigint,&amp;nbsp;&lt;/font&gt;&lt;/li&gt;&lt;li&gt;&lt;font style=&quot;font-size: 15px;&quot;&gt;&amp;nbsp; `hash` string,&amp;nbsp;&lt;/font&gt;&lt;/li&gt;&lt;li&gt;&lt;font style=&quot;font-size: 15px;&quot;&gt;&amp;nbsp; `commercialscore` bigint,&amp;nbsp;&lt;/font&gt;&lt;/li&gt;&lt;li&gt;&lt;font style=&quot;font-size: 15px;&quot;&gt;&amp;nbsp; `negativeregularscore` bigint,&amp;nbsp;&lt;/font&gt;&lt;/li&gt;&lt;li&gt;&lt;font style=&quot;font-size: 15px;&quot;&gt;&amp;nbsp; `negativescore` bigint,&amp;nbsp;&lt;/font&gt;&lt;/li&gt;&lt;li&gt;&lt;font style=&quot;font-size: 15px;&quot;&gt;&amp;nbsp; `positivescore` bigint,&amp;nbsp;&lt;/font&gt;&lt;/li&gt;&lt;li&gt;&lt;font style=&quot;font-size: 15px;&quot;&gt;&amp;nbsp; `score` bigint,&amp;nbsp;&lt;/font&gt;&lt;/li&gt;&lt;li&gt;&lt;font style=&quot;font-size: 15px;&quot;&gt;&amp;nbsp; `grade` string&lt;/font&gt;&lt;/li&gt;&lt;/ul&gt;&lt;/div&gt;" style="align=left;strokeColor=none;fillColor=none;spacingLeft=4;fontSize=12;verticalAlign=top;resizable=0;rotatable=0;part=1;html=1;" vertex="1" parent="0q62kOGyJzSYfxdms7gV-20">
          <mxGeometry y="50" width="310" height="1080" as="geometry" />
        </mxCell>
        <mxCell id="0q62kOGyJzSYfxdms7gV-22" value="&lt;font style=&quot;font-size: 19px;&quot;&gt;us_country&lt;/font&gt;" style="swimlane;childLayout=stackLayout;horizontal=1;startSize=50;horizontalStack=0;rounded=1;fontSize=14;fontStyle=0;strokeWidth=2;resizeParent=0;resizeLast=1;shadow=0;dashed=0;align=center;arcSize=4;whiteSpace=wrap;html=1;" vertex="1" parent="1">
          <mxGeometry x="-70" y="-570" width="200" height="210" as="geometry" />
        </mxCell>
        <mxCell id="0q62kOGyJzSYfxdms7gV-23" value="&lt;div style=&quot;font-size: 15px;&quot;&gt;&lt;ul&gt;&lt;li&gt;&lt;font style=&quot;font-size: 15px;&quot;&gt;`date` string,&amp;nbsp;&lt;/font&gt;&lt;/li&gt;&lt;li&gt;&lt;font style=&quot;font-size: 15px;&quot;&gt;&amp;nbsp; `county` string,&amp;nbsp;&lt;/font&gt;&lt;/li&gt;&lt;li&gt;&lt;font style=&quot;font-size: 15px;&quot;&gt;&amp;nbsp; `state` string,&amp;nbsp;&lt;/font&gt;&lt;/li&gt;&lt;li&gt;&lt;font style=&quot;font-size: 15px;&quot;&gt;&amp;nbsp; `fips` bigint,&amp;nbsp;&lt;/font&gt;&lt;/li&gt;&lt;li&gt;&lt;font style=&quot;font-size: 15px;&quot;&gt;&amp;nbsp; `cases` bigint,&amp;nbsp;&lt;/font&gt;&lt;/li&gt;&lt;li&gt;&lt;font style=&quot;font-size: 15px;&quot;&gt;&amp;nbsp; `deaths` bigint&lt;/font&gt;&lt;/li&gt;&lt;/ul&gt;&lt;/div&gt;" style="align=left;strokeColor=none;fillColor=none;spacingLeft=4;fontSize=12;verticalAlign=top;resizable=0;rotatable=0;part=1;html=1;" vertex="1" parent="0q62kOGyJzSYfxdms7gV-22">
          <mxGeometry y="50" width="200" height="160" as="geometry" />
        </mxCell>
        <mxCell id="0q62kOGyJzSYfxdms7gV-24" value="&lt;font style=&quot;font-size: 19px;&quot;&gt;us_daily&lt;/font&gt;" style="swimlane;childLayout=stackLayout;horizontal=1;startSize=50;horizontalStack=0;rounded=1;fontSize=14;fontStyle=0;strokeWidth=2;resizeParent=0;resizeLast=1;shadow=0;dashed=0;align=center;arcSize=4;whiteSpace=wrap;html=1;" vertex="1" parent="1">
          <mxGeometry x="-495" y="-560" width="330" height="550" as="geometry" />
        </mxCell>
        <mxCell id="0q62kOGyJzSYfxdms7gV-25" value="&lt;div style=&quot;font-size: 15px;&quot;&gt;&lt;ul&gt;&lt;li&gt;&lt;font style=&quot;font-size: 15px;&quot;&gt;`date` bigint,&amp;nbsp;&lt;/font&gt;&lt;/li&gt;&lt;li&gt;&lt;font style=&quot;font-size: 15px;&quot;&gt;&amp;nbsp; `states` bigint,&amp;nbsp;&lt;/font&gt;&lt;/li&gt;&lt;li&gt;&lt;font style=&quot;font-size: 15px;&quot;&gt;&amp;nbsp; `positive` bigint,&amp;nbsp;&lt;/font&gt;&lt;/li&gt;&lt;li&gt;&lt;font style=&quot;font-size: 15px;&quot;&gt;&amp;nbsp; `negative` bigint,&amp;nbsp;&lt;/font&gt;&lt;/li&gt;&lt;li&gt;&lt;font style=&quot;font-size: 15px;&quot;&gt;&amp;nbsp; `pending` bigint,&amp;nbsp;&lt;/font&gt;&lt;/li&gt;&lt;li&gt;&lt;font style=&quot;font-size: 15px;&quot;&gt;&amp;nbsp; `hospitalizedcurrently` bigint,&amp;nbsp;&lt;/font&gt;&lt;/li&gt;&lt;li&gt;&lt;font style=&quot;font-size: 15px;&quot;&gt;&amp;nbsp; `hospitalizedcumulative` bigint,&amp;nbsp;&lt;/font&gt;&lt;/li&gt;&lt;li&gt;&lt;font style=&quot;font-size: 15px;&quot;&gt;&amp;nbsp; `inicucurrently` bigint,&amp;nbsp;&lt;/font&gt;&lt;/li&gt;&lt;li&gt;&lt;font style=&quot;font-size: 15px;&quot;&gt;&amp;nbsp; `inicucumulative` bigint,&amp;nbsp;&lt;/font&gt;&lt;/li&gt;&lt;li&gt;&lt;font style=&quot;font-size: 15px;&quot;&gt;&amp;nbsp; `onventilatorcurrently` bigint,&amp;nbsp;&lt;/font&gt;&lt;/li&gt;&lt;li&gt;&lt;font style=&quot;font-size: 15px;&quot;&gt;&amp;nbsp; `onventilatorcumulative` bigint,&amp;nbsp;&lt;/font&gt;&lt;/li&gt;&lt;li&gt;&lt;font style=&quot;font-size: 15px;&quot;&gt;&amp;nbsp; `datechecked` string,&amp;nbsp;&lt;/font&gt;&lt;/li&gt;&lt;li&gt;&lt;font style=&quot;font-size: 15px;&quot;&gt;&amp;nbsp; `death` bigint,&amp;nbsp;&lt;/font&gt;&lt;/li&gt;&lt;li&gt;&lt;font style=&quot;font-size: 15px;&quot;&gt;&amp;nbsp; `hospitalized` bigint,&amp;nbsp;&lt;/font&gt;&lt;/li&gt;&lt;li&gt;&lt;font style=&quot;font-size: 15px;&quot;&gt;&amp;nbsp; `totaltestresults` bigint,&amp;nbsp;&lt;/font&gt;&lt;/li&gt;&lt;li&gt;&lt;font style=&quot;font-size: 15px;&quot;&gt;&amp;nbsp; `lastmodified` string,&amp;nbsp;&lt;/font&gt;&lt;/li&gt;&lt;li&gt;&lt;font style=&quot;font-size: 15px;&quot;&gt;&amp;nbsp; `recovered` string,&amp;nbsp;&lt;/font&gt;&lt;/li&gt;&lt;li&gt;&lt;font style=&quot;font-size: 15px;&quot;&gt;&amp;nbsp; `total` bigint,&amp;nbsp;&lt;/font&gt;&lt;/li&gt;&lt;li&gt;&lt;font style=&quot;font-size: 15px;&quot;&gt;&amp;nbsp; `posneg` bigint,&amp;nbsp;&lt;/font&gt;&lt;/li&gt;&lt;li&gt;&lt;font style=&quot;font-size: 15px;&quot;&gt;&amp;nbsp; `deathincrease` bigint,&amp;nbsp;&lt;/font&gt;&lt;/li&gt;&lt;li&gt;&lt;font style=&quot;font-size: 15px;&quot;&gt;&amp;nbsp; `hospitalizedincrease` bigint,&amp;nbsp;&lt;/font&gt;&lt;/li&gt;&lt;li&gt;&lt;font style=&quot;font-size: 15px;&quot;&gt;&amp;nbsp; `negativeincrease` bigint,&amp;nbsp;&lt;/font&gt;&lt;/li&gt;&lt;li&gt;&lt;font style=&quot;font-size: 15px;&quot;&gt;&amp;nbsp; `positiveincrease` bigint,&amp;nbsp;&lt;/font&gt;&lt;/li&gt;&lt;li&gt;&lt;font style=&quot;font-size: 15px;&quot;&gt;&amp;nbsp; `totaltestresultsincrease` bigint,&amp;nbsp;&lt;/font&gt;&lt;/li&gt;&lt;li&gt;&lt;font style=&quot;font-size: 15px;&quot;&gt;&amp;nbsp; `hash` string&lt;/font&gt;&lt;/li&gt;&lt;/ul&gt;&lt;/div&gt;" style="align=left;strokeColor=none;fillColor=none;spacingLeft=4;fontSize=12;verticalAlign=top;resizable=0;rotatable=0;part=1;html=1;" vertex="1" parent="0q62kOGyJzSYfxdms7gV-24">
          <mxGeometry y="50" width="330" height="500" as="geometry" />
        </mxCell>
        <mxCell id="0q62kOGyJzSYfxdms7gV-26" value="&lt;font style=&quot;font-size: 19px;&quot;&gt;us_states&lt;/font&gt;" style="swimlane;childLayout=stackLayout;horizontal=1;startSize=50;horizontalStack=0;rounded=1;fontSize=14;fontStyle=0;strokeWidth=2;resizeParent=0;resizeLast=1;shadow=0;dashed=0;align=center;arcSize=4;whiteSpace=wrap;html=1;" vertex="1" parent="1">
          <mxGeometry x="-425" y="60" width="190" height="190" as="geometry" />
        </mxCell>
        <mxCell id="0q62kOGyJzSYfxdms7gV-27" value="&lt;div style=&quot;font-size: 15px;&quot;&gt;&lt;ul&gt;&lt;li&gt;`date` string,&amp;nbsp;&lt;/li&gt;&lt;li&gt;&amp;nbsp; `state` string,&amp;nbsp;&lt;/li&gt;&lt;li&gt;&amp;nbsp; `fips` bigint,&amp;nbsp;&lt;/li&gt;&lt;li&gt;&amp;nbsp; `cases` bigint,&amp;nbsp;&lt;/li&gt;&lt;li&gt;&amp;nbsp; `deaths` bigint&lt;/li&gt;&lt;/ul&gt;&lt;/div&gt;" style="align=left;strokeColor=none;fillColor=none;spacingLeft=4;fontSize=12;verticalAlign=top;resizable=0;rotatable=0;part=1;html=1;" vertex="1" parent="0q62kOGyJzSYfxdms7gV-26">
          <mxGeometry y="50" width="190" height="140" as="geometry" />
        </mxCell>
        <mxCell id="0q62kOGyJzSYfxdms7gV-38" value="" style="endArrow=open;endFill=1;endSize=12;html=1;rounded=0;entryX=0.5;entryY=1;entryDx=0;entryDy=0;exitX=0.5;exitY=0;exitDx=0;exitDy=0;" edge="1" parent="1" source="0q62kOGyJzSYfxdms7gV-14" target="0q62kOGyJzSYfxdms7gV-23">
          <mxGeometry width="160" relative="1" as="geometry">
            <mxPoint x="-110" y="-100" as="sourcePoint" />
            <mxPoint x="-210" y="-80" as="targetPoint" />
          </mxGeometry>
        </mxCell>
        <mxCell id="0q62kOGyJzSYfxdms7gV-39" value="" style="endArrow=open;endFill=1;endSize=12;html=1;rounded=0;exitX=1;exitY=0;exitDx=0;exitDy=0;entryX=0;entryY=0;entryDx=0;entryDy=0;" edge="1" parent="1" source="0q62kOGyJzSYfxdms7gV-15" target="0q62kOGyJzSYfxdms7gV-21">
          <mxGeometry width="160" relative="1" as="geometry">
            <mxPoint x="220" y="-190" as="sourcePoint" />
            <mxPoint x="380" y="-190" as="targetPoint" />
            <Array as="points">
              <mxPoint x="170" y="-520" />
            </Array>
          </mxGeometry>
        </mxCell>
        <mxCell id="0q62kOGyJzSYfxdms7gV-41" value="" style="endArrow=open;endFill=1;endSize=12;html=1;rounded=0;exitX=0;exitY=0;exitDx=0;exitDy=0;entryX=1;entryY=0;entryDx=0;entryDy=0;" edge="1" parent="1" source="0q62kOGyJzSYfxdms7gV-14" target="0q62kOGyJzSYfxdms7gV-25">
          <mxGeometry width="160" relative="1" as="geometry">
            <mxPoint x="670" y="-310" as="sourcePoint" />
            <mxPoint x="830" y="-310" as="targetPoint" />
            <Array as="points">
              <mxPoint x="-110" y="-510" />
            </Array>
          </mxGeometry>
        </mxCell>
        <mxCell id="0q62kOGyJzSYfxdms7gV-42" value="" style="endArrow=open;endFill=1;endSize=12;html=1;rounded=0;exitX=0;exitY=0.75;exitDx=0;exitDy=0;entryX=1;entryY=0;entryDx=0;entryDy=0;" edge="1" parent="1" source="0q62kOGyJzSYfxdms7gV-15" target="0q62kOGyJzSYfxdms7gV-27">
          <mxGeometry width="160" relative="1" as="geometry">
            <mxPoint x="670" y="-350" as="sourcePoint" />
            <mxPoint x="830" y="-350" as="targetPoint" />
          </mxGeometry>
        </mxCell>
        <mxCell id="0q62kOGyJzSYfxdms7gV-44" value="" style="endArrow=open;endFill=1;endSize=12;html=1;rounded=0;exitX=0.5;exitY=1;exitDx=0;exitDy=0;entryX=0.5;entryY=0;entryDx=0;entryDy=0;" edge="1" parent="1" source="0q62kOGyJzSYfxdms7gV-15" target="0q62kOGyJzSYfxdms7gV-1">
          <mxGeometry width="160" relative="1" as="geometry">
            <mxPoint x="670" y="-350" as="sourcePoint" />
            <mxPoint x="830" y="-350" as="targetPoint" />
          </mxGeometry>
        </mxCell>
        <mxCell id="0q62kOGyJzSYfxdms7gV-45" value="" style="endArrow=open;endFill=1;endSize=12;html=1;rounded=0;exitX=0.5;exitY=0;exitDx=0;exitDy=0;entryX=0.5;entryY=0;entryDx=0;entryDy=0;" edge="1" parent="1" source="0q62kOGyJzSYfxdms7gV-20" target="0q62kOGyJzSYfxdms7gV-24">
          <mxGeometry width="160" relative="1" as="geometry">
            <mxPoint x="670" y="60" as="sourcePoint" />
            <mxPoint x="830" y="60" as="targetPoint" />
            <Array as="points">
              <mxPoint x="435" y="-720" />
              <mxPoint x="-330" y="-720" />
            </Array>
          </mxGeometry>
        </mxCell>
        <mxCell id="0q62kOGyJzSYfxdms7gV-47" value="" style="endArrow=open;endFill=1;endSize=12;html=1;rounded=0;exitX=0;exitY=0;exitDx=0;exitDy=0;entryX=0.332;entryY=1.032;entryDx=0;entryDy=0;entryPerimeter=0;" edge="1" parent="1" source="0q62kOGyJzSYfxdms7gV-24" target="0q62kOGyJzSYfxdms7gV-13">
          <mxGeometry width="160" relative="1" as="geometry">
            <mxPoint x="-20" y="-250" as="sourcePoint" />
            <mxPoint x="140" y="-250" as="targetPoint" />
            <Array as="points">
              <mxPoint x="-580" y="-560" />
            </Array>
          </mxGeometry>
        </mxCell>
        <mxCell id="0q62kOGyJzSYfxdms7gV-48" value="" style="endArrow=open;endFill=1;endSize=12;html=1;rounded=0;exitX=0;exitY=0.25;exitDx=0;exitDy=0;entryX=1;entryY=0;entryDx=0;entryDy=0;" edge="1" parent="1" source="0q62kOGyJzSYfxdms7gV-25" target="0q62kOGyJzSYfxdms7gV-19">
          <mxGeometry width="160" relative="1" as="geometry">
            <mxPoint x="-20" y="-250" as="sourcePoint" />
            <mxPoint x="140" y="-250" as="targetPoint" />
          </mxGeometry>
        </mxCell>
      </root>
    </mxGraphModel>
  </diagram>
</mxfile>
